<svg xmlns="http://www.w3.org/2000/svg" width="128" height="128" viewBox="0 0 128 128">
    <g fill="none" fill-rule="evenodd">
        <path d="M0 0h128v128H0z"/>
        <path fill="#FFF" stroke="#4F4C4D" stroke-width="3.382" d="M22.75 41.732v-.16C22.75 22.478 41.218 7 64 7s41.25 15.478 41.25 34.572V105.257h-82.5V41.732z"/>
        <path fill="#4F4C4D" d="M50.52 48.33h4.062c.85 0 1.488-.187 1.913-.559.425-.371.638-.976.638-1.812 0-.806-.213-1.39-.638-1.754-.425-.365-1.063-.547-1.913-.547H50.52v4.671zm-3.708-7.506h9.093c.755 0 1.436.12 2.042.36a4.71 4.71 0 0 1 1.56.987c.432.419.763.903.991 1.453a4.59 4.59 0 0 1 .342 1.777c0 .976-.208 1.82-.625 2.533-.418.713-1.099 1.255-2.043 1.627v.046c.456.124.834.314 1.133.57.3.255.544.557.732.906.19.348.327.732.414 1.15.086.418.145.837.177 1.255.016.263.031.573.047.93.016.356.043.72.083 1.091.04.372.102.725.189 1.058.086.333.216.615.39.848h-3.708c-.205-.527-.331-1.154-.378-1.882a27.657 27.657 0 0 0-.213-2.092c-.126-.867-.393-1.502-.803-1.905-.41-.403-1.078-.604-2.007-.604H50.52v6.483h-3.708V40.824zm17.051 0h3.708v16.59h-3.708v-16.59zm10.675 7.807h2.88c.426 0 .835-.03 1.229-.093.393-.062.74-.182 1.039-.36.3-.178.54-.43.72-.755.181-.325.272-.751.272-1.278s-.09-.953-.272-1.278a1.976 1.976 0 0 0-.72-.755 2.888 2.888 0 0 0-1.04-.36 7.889 7.889 0 0 0-1.227-.094h-2.881v4.973zm-3.708-7.807h7.604c1.055 0 1.953.15 2.693.453.74.302 1.342.7 1.806 1.196a4.582 4.582 0 0 1 1.016 1.697c.212.635.318 1.293.318 1.975 0 .666-.106 1.32-.318 1.963a4.566 4.566 0 0 1-1.016 1.708c-.464.496-1.066.895-1.806 1.197-.74.302-1.638.453-2.693.453h-3.896v5.949H70.83V40.824z"/>
        <path fill="#FC0" stroke="#4F4C4D" stroke-width="3.382" d="M10.691 103.397h106.618v16.912H10.691z"/>
    </g>
</svg>
