<svg xmlns="http://www.w3.org/2000/svg" width="128" height="128" viewBox="0 0 128 128">
    <g fill="none" fill-rule="evenodd">
        <path stroke="#4F4D4C" stroke-linecap="square" stroke-width="3" d="M85.137 4.8L38.54 123.2"/>
        <path fill="#FC0" stroke="#4F4D4C" stroke-width="3" d="M106.28 67.197l.448-1.891c.911-3.82-1.163-7.808-4.82-9.276a8.022 8.022 0 0 0-2.993-.579 8.09 8.09 0 0 0-6.935 3.946L91 61.056l-6-2.398.445-1.877c.911-3.82-1.16-7.808-4.817-9.277a8.052 8.052 0 0 0-2.993-.578 8.082 8.082 0 0 0-6.937 3.944l-.983 1.66-6.71-2.623.415-1.881c.842-3.836-1.298-7.79-4.981-9.194a8.006 8.006 0 0 0-2.865-.53 8.068 8.068 0 0 0-7.004 4.064l-.954 1.679-6.033-2.303.412-1.88c.842-3.838-1.298-7.79-4.979-9.195a8.008 8.008 0 0 0-2.866-.53 8.067 8.067 0 0 0-7.004 4.065l-.956 1.678-4.096-1.571.802-2.087C29.23 15.75 45.612 5.106 64.635 5.106c6.186 0 12.309 1.137 18.202 3.384l.622.243c24.286 9.731 36.726 35.747 27.74 58.001l-.836 2.063-4.083-1.6z"/>
        <path stroke="#4F4D4C" stroke-linecap="square" stroke-width="3" d="M123.625 104.005H17.27l-12.17 16.101"/>
        <path stroke="#4F4D4C" stroke-linecap="square" stroke-width="3" d="M99.105 104.005h12.351l12.17 16.101M122.936 104.005H27.408L8.816 76"/>
        <path stroke="#4F4D4C" stroke-linecap="square" stroke-width="3" d="M118.704 95.229h-84.06L20.063 72.8"/>
        <path d="M0 0h128v128H0z"/>
    </g>
</svg>
