<svg xmlns="http://www.w3.org/2000/svg" xmlns:xlink="http://www.w3.org/1999/xlink" width="201" height="40" viewBox="0 0 201 40">
    <defs>
        <path id="a" d="M.28 23.346L8.58 5.841l5.91-5.84 4.754 4.646z"/>
        <path id="c" d="M19.102.294L33.31 14.34l-5.91 5.84-8.298 17.506L.189 18.99z"/>
    </defs>
    <g fill="none" fill-rule="evenodd">
        <g fill="#FFF">
            <path d="M65.868 11.988h-6.286v-3.94h17.182v3.94H70.48v17.369h-4.611v-17.37"/>
            <path d="M83.592 31.296c-.91 2.478-2.35 3.492-5.227 3.492-.852 0-1.704-.06-2.556-.149v-3.491c.793.06 1.616.178 2.438.148 1.44-.148 1.91-1.67 1.44-2.894L74.34 13.928h4.465l3.436 10.565h.06l3.318-10.565h4.318l-6.345 17.368M90.936 13.928h3.935v2.089h.06c1.086-1.582 2.672-2.507 4.64-2.507 1.909 0 3.613.716 4.435 2.566.881-1.343 2.467-2.566 4.582-2.566 3.23 0 5.551 1.522 5.551 5.522v10.325h-4.17v-8.744c0-2.06-.177-3.76-2.556-3.76-2.35 0-2.79 1.969-2.79 3.91v8.594h-4.17v-8.654c0-1.792.116-3.85-2.527-3.85-.822 0-2.82.536-2.82 3.551v8.953h-4.17V13.928M119.736 22.672c.117 2.685 1.41 3.91 3.73 3.91 1.674 0 3.025-1.045 3.29-2h3.67c-1.174 3.64-3.67 5.192-7.107 5.192-4.788 0-7.754-3.342-7.754-8.116 0-4.627 3.143-8.148 7.754-8.148 5.17 0 7.666 4.417 7.372 9.162h-10.955zm6.784-2.685c-.381-2.15-1.292-3.284-3.318-3.284-2.644 0-3.408 2.09-3.466 3.284h6.784zM132.807 8.049h7.254c6.315.15 9.634 3.67 9.634 10.654 0 6.983-3.319 10.505-9.634 10.654h-7.254V8.049zm1.997 19.577h4.259c6.021.03 8.635-2.566 8.635-8.923 0-6.356-2.614-8.954-8.635-8.923h-4.259v17.846zM151.87 11.063h1.85V8.05h-1.85v3.014zm0 18.294h1.85V13.958h-1.85v15.399zM169.11 28.103c-.029 4.596-1.762 7.4-6.725 7.4-3.026 0-6.02-1.371-6.285-4.654h1.849c.412 2.268 2.38 3.073 4.436 3.073 3.406 0 4.875-2.058 4.875-5.819v-2.09h-.058c-.852 1.881-2.645 3.164-4.817 3.164-4.847 0-6.844-3.521-6.844-7.907 0-4.239 2.467-7.76 6.844-7.76 2.203 0 4.083 1.403 4.817 3.104h.058v-2.656h1.85v14.145zm-1.85-6.625c0-3.014-1.38-6.386-4.875-6.386-3.525 0-4.993 3.193-4.993 6.386 0 3.104 1.585 6.118 4.993 6.118 3.201 0 4.875-2.984 4.875-6.118zM171.211 11.063h1.852V8.05h-1.852v3.014zm0 18.294h1.852V13.958h-1.852v15.399zM179.127 13.958h3.083v1.582h-3.083v10.385c0 1.223.176 1.94 1.498 2.03.528 0 1.056-.031 1.585-.09v1.61c-.557 0-1.086.061-1.644.061-2.468 0-3.319-.836-3.29-3.462V15.54h-2.644v-1.582h2.644V9.332h1.851v4.626M183.68 18.672c.176-3.61 2.671-5.162 6.138-5.162 2.672 0 5.58.836 5.58 4.954v8.177c0 .717.352 1.134 1.087 1.134.206 0 .44-.06.588-.119v1.582c-.412.09-.705.119-1.205.119-1.88 0-2.173-1.074-2.173-2.685h-.059c-1.292 1.999-2.614 3.132-5.522 3.132-2.79 0-5.08-1.402-5.08-4.506 0-4.327 4.14-4.476 8.135-4.953 1.527-.18 2.378-.389 2.378-2.09 0-2.537-1.79-3.163-3.964-3.163-2.291 0-3.995 1.074-4.053 3.58h-1.85zm9.867 2.27h-.058c-.235.447-1.057.596-1.557.686-3.142.566-7.048.536-7.048 3.551 0 1.88 1.644 3.043 3.377 3.043 2.82 0 5.317-1.82 5.286-4.834v-2.446zM198.276 29.357h1.851V8.049h-1.851z"/>
        </g>
        <path stroke="#FFF" stroke-width=".72" d="M19.736 1.294L.823 19.978l18.913 18.708 19.01-18.708z"/>
        <g transform="translate(19.455 15.34)">
            <mask id="b" fill="#fff">
                <use xlink:href="#a"/>
            </mask>
            <path fill="#201C1D" d="M.232 23.374h19.023V-.03H.232z" mask="url(#b)"/>
        </g>
        <g transform="translate(.634 1)">
            <mask id="d" fill="#fff">
                <use xlink:href="#c"/>
            </mask>
            <path fill="#FFC900" d="M.116 37.713h33.27V.287H.115z" mask="url(#d)"/>
        </g>
    </g>
</svg>
