<svg xmlns="http://www.w3.org/2000/svg" xmlns:xlink="http://www.w3.org/1999/xlink" width="168" height="50" viewBox="0 0 168 50">
    <defs>
        <path id="a" d="M16.832.206H.305v20.53h16.527V.205z"/>
        <path id="c" d="M0 49.794h167.803V.357H0z"/>
    </defs>
    <g fill="none" fill-rule="evenodd">
        <g transform="translate(69.91 .15)">
            <mask id="b" fill="#fff">
                <use xlink:href="#a"/>
            </mask>
            <path fill="#231F20" d="M2.26 19.068h4.168c5.892.029 8.45-2.473 8.45-8.597s-2.558-8.626-8.45-8.597H2.26v17.194zM.305.206h7.1c6.18.144 9.427 3.537 9.427 10.265 0 6.728-3.247 10.12-9.427 10.264h-7.1V.206z" mask="url(#b)"/>
        </g>
        <mask id="d" fill="#fff">
            <use xlink:href="#c"/>
        </mask>
        <path fill="#231F20" d="M88.554 20.886h1.811V6.05h-1.81v14.836zm0-17.625h1.811V.357h-1.81v2.904zM103.328 13.296c0-2.904-1.351-6.153-4.772-6.153-3.448 0-4.886 3.076-4.886 6.153 0 2.99 1.552 5.894 4.886 5.894 3.134 0 4.772-2.875 4.772-5.894zm1.81 6.382c-.028 4.428-1.724 7.13-6.582 7.13-2.96 0-5.892-1.322-6.15-4.484h1.81c.403 2.185 2.328 2.961 4.34 2.961 3.335 0 4.772-1.984 4.772-5.607v-2.012h-.058c-.833 1.811-2.587 3.048-4.714 3.048-4.742 0-6.696-3.393-6.696-7.62 0-4.082 2.414-7.475 6.696-7.475 2.156 0 3.996 1.351 4.714 2.99h.058v-2.56h1.81v13.63zM107.352 20.886h1.81V6.05h-1.81v14.836zm0-17.625h1.81V.357h-1.81v2.904zM114.279 6.05h3.018v1.524h-3.018V17.58c0 1.178.172 1.869 1.466 1.955.517 0 1.035-.029 1.552-.086V21c-.546 0-1.064.058-1.61.058-2.414 0-3.247-.805-3.219-3.335V7.574h-2.587V6.05h2.587V1.594h1.81V6.05zM128.075 12.778h-.057c-.23.431-1.035.575-1.524.661-3.075.547-6.898.518-6.898 3.422 0 1.811 1.61 2.933 3.306 2.933 2.759 0 5.202-1.755 5.173-4.658v-2.358zm-9.657-2.185c.172-3.479 2.615-4.974 6.007-4.974 2.615 0 5.461.805 5.461 4.773v7.877c0 .69.345 1.093 1.063 1.093a1.7 1.7 0 0 0 .575-.115v1.524c-.402.086-.69.115-1.178.115-1.84 0-2.127-1.035-2.127-2.588h-.058c-1.264 1.927-2.558 3.02-5.403 3.02-2.73 0-4.973-1.352-4.973-4.342 0-4.169 4.053-4.313 7.962-4.773 1.495-.172 2.328-.374 2.328-2.013 0-2.443-1.753-3.047-3.88-3.047-2.242 0-3.909 1.035-3.967 3.45h-1.81zM132.386 20.886h1.811V.357h-1.81zM124.674 37.62c-.033 1.586 1.11 2.072 2.511 2.072.808 0 2.037-.442 2.037-1.564 0-.874-.873-1.22-1.584-1.393l-1.714-.42c-.906-.227-1.735-.659-1.735-1.857 0-.755.485-2.169 2.651-2.169 1.52 0 2.856.82 2.845 2.396h-.732c-.043-1.176-1.013-1.77-2.102-1.77-1.002 0-1.93.389-1.93 1.533 0 .723.54 1.025 1.165 1.176l1.875.464c1.089.291 1.994.766 1.994 2.029 0 .529-.216 2.202-2.943 2.202-1.82 0-3.157-.821-3.071-2.699h.733zM131.777 37.135h3.028l-1.487-3.95-1.541 3.95zm1.164-4.684h.82l3.017 7.706h-.787l-.937-2.396h-3.503l-.927 2.395h-.787l3.104-7.705zM11.049 37.753c0-1.262-.578-2.594-1.992-2.594-1.58 0-2.134 1.332-2.134 2.594 0 1.262.554 2.595 2.134 2.595 1.414 0 1.992-1.333 1.992-2.595zM6.18 32.376h.743v3.49h.024c.318-.872 1.202-1.332 2.11-1.332 1.85 0 2.735 1.497 2.735 3.22 0 1.721-.885 3.219-2.735 3.219-.979 0-1.827-.507-2.17-1.333h-.023v1.156H6.18v-8.42zm5.529 2.334h.79l2.004 5.19 1.874-5.19h.743l-2.64 7.018c-.425 1.025-.673 1.32-1.604 1.32-.295-.012-.448-.012-.566-.058v-.626c.177.036.342.06.507.06.66 0 .813-.39 1.06-.956l.26-.696-2.428-6.062zm107.493 2.008l2.173-2.076h-.859l-2.772 2.65v-4.869H117.11v7.74h.634V38.08l.984-.895 2.036 2.977h.777s-2.282-3.361-2.34-3.444zm-4.67-2.224c-.752 0-1.403.408-1.72 1.019v-.87h-.633v5.52h.633v-3.08c0-1.208.682-2.02 1.699-2.02.898 0 1.335.535 1.335 1.636v3.463h.634V36.7c0-.546 0-2.205-1.947-2.205zm-2.663 5.564l.009.05-.433.076c-.537 0-.804-.271-.818-.83v-.08c-.39.663-1.024 1.027-1.87 1.027-.815 0-1.403-.305-1.654-.857-.218-.482-.203-1.138.033-1.558.106-.2.314-.402.556-.536.582-.343 1.566-.515 2.36-.627.332-.038.554-.135.554-.483v-.16c0-.239-.097-1.017-1.337-1.016-.523 0-.927.167-1.167.487-.136.179-.224.415-.254.684l-.006.055h-.645l.007-.067c.114-1.115.858-1.73 2.098-1.73 1.267 0 1.938.556 1.938 1.608v3.008c0 .452.178.505.312.505l.24-.02.077-.008v.472zm-1.263-2.843c-.497.044-1.23.154-1.736.289-.663.179-1.288.348-1.288 1.168 0 .617.497 1.048 1.208 1.048 1.482 0 1.816-1.258 1.816-1.699v-.806zm-5.393-1.155c.566.127 1.479.677 1.479 1.897 0 1.38-.987 2.205-2.642 2.205h-3.058v-7.739h2.973c1.492 0 2.385.745 2.385 1.992 0 .82-.457 1.442-1.137 1.645zm-3.544 3.49h2.381c.734 0 1.965-.208 1.965-1.604 0-1.302-1.23-1.496-1.965-1.496h-2.38v3.1zm2.381-3.723c1.048 0 1.624-.494 1.624-1.39 0-1.22-1.07-1.4-1.71-1.4h-2.295v2.79h2.381zm-4.183.423c0-1.406-1.277-1.861-2.078-1.861-.67 0-1.351.389-1.709.833V32.42h-2.294v7.728h2.466V37.16c0-.444.25-.791.628-.791.38 0 .618.217.618.747v3.031h2.37V36.25zm-7.776 4.081a3.46 3.46 0 0 0 1.44-.293v-1.547s0 .01-.054.022a1.601 1.601 0 0 1-.304.032c-.53 0-.703-.336-.703-.866v-1.494h.93V34.67h-.93v-2.251H90.1v2.25h-.724v1.516h.724v1.927c0 1.461.423 2.22 1.991 2.22zm-5.297-.184h2.37V32.42h-2.37v7.728zm-.332 0c-.107-.433-.163-.671-.173-1.72l-.021-1.538c-.011-1.645-.336-2.598-3.073-2.598-1.623 0-2.575.66-2.813 1.97l-.012.065h2.252a.66.66 0 0 1 .648-.66c.346 0 .488.227.488.487 0 .335-.531.454-.91.498-1.038.13-2.088.4-2.542 1.125-.335.542-.292 1.387.086 1.905.476.64 1.385.714 1.786.714.627 0 1.46-.324 1.861-.735l.065.487h2.358zM83.8 37.895c0 .542-.161.899-.778.92-.325.011-.476-.215-.476-.4 0-.368.465-.454.65-.509.29-.086.604-.183.604-.183v.172zm-3.836-.107c0-2.155-1.277-3.443-3.377-3.443-2.271 0-3.158 1.602-3.115 3.129.053 1.72 1.266 2.921 3.29 2.921 1.102 0 2.26-.454 2.866-1.363.12-.184.249-.465.292-.703h-2.272c-.108.335-.487.486-.79.486-.638 0-.876-.476-.887-1.027h3.993zm-3.138-2.047c.432 0 .747.39.79.834h-1.612c.043-.465.356-.834.822-.834zm-2.928-1.071H71.44s-.292.952-.4 1.472c-.184.66-.205.964-.205.964s-.021-.314-.206-.964c-.119-.562-.41-1.472-.41-1.472h-2.165s-.292.91-.41 1.472c-.175.617-.207.964-.207.964s-.032-.357-.195-.964c-.108-.53-.4-1.472-.4-1.472h-2.575l1.645 5.478h2.499s.336-1.018.455-1.58c.205-.737.215-1.051.215-1.051s.023.314.238 1.05c.13.606.455 1.57.455 1.57l2.477.01 1.646-5.477zm-9.529 5.478V36.25c0-1.406-1.298-1.861-2.088-1.861-.649 0-1.266.28-1.72.833l-.022-.552h-2.186v5.478h2.37v-3c0-.443.249-.779.639-.779.378 0 .605.206.605.737v3.042h2.402zm-9.485.26c1.85 0 3.246-1.072 3.246-3.01 0-1.927-1.385-3.053-3.246-3.053-1.85 0-3.192 1.094-3.192 3.01 0 1.894 1.266 3.052 3.192 3.052zm.033-4.396c.66 0 .735.93.735 1.419 0 .476-.075 1.407-.735 1.407s-.736-.92-.736-1.407c0-.488.065-1.419.736-1.419zm-3.449 4.146v-3.442c0-1.223-.4-2.317-2.088-2.317-.443 0-1.168.13-1.72.866-.357-.476-.866-.866-1.818-.866-.757 0-1.472.455-1.73.866-.282-.411-.878-.866-1.775-.866-.78 0-1.515.379-1.807.834-.26-.476-1.028-.844-1.786-.844-.757 0-1.363.325-1.72.768l-.055-.487h-2.152v5.488h2.369v-3.01c0-.443.249-.779.638-.779.379 0 .552.206.552.737v3.052h2.37v-3.01c0-.443.249-.779.639-.779.378 0 .552.206.552.737v3.052h2.37v-3.01c0-.443.248-.779.637-.779.379 0 .552.206.552.737v3.052h2.413v-3.02c0-.444.25-.79.628-.79s.551.216.551.747v3.063h2.38zm-20.12.25c1.85 0 3.246-1.072 3.246-3.01 0-1.927-1.386-3.053-3.247-3.053-1.85 0-3.192 1.094-3.192 3.01 0 1.894 1.266 3.052 3.192 3.052zm.032-4.396c.66 0 .736.93.736 1.419 0 .476-.076 1.407-.736 1.407s-.736-.92-.736-1.407c0-.488.065-1.419.736-1.419zm-3.761 2.577c-.52 1.038-1.613 1.818-3.247 1.818-2.542 0-4.1-1.688-4.1-4.07 0-2.219 1.298-4.113 3.927-4.113 2.575 0 3.733 1.547 3.787 3.085h-2.64c-.216-.812-.725-.975-1.082-.975-.465 0-1.255.325-1.255 1.96 0 1.634.79 1.959 1.255 1.959.282 0 .67-.12.941-.574.087-.14.185-.357.206-.54h2.575c0 .497-.162 1.06-.367 1.45zM6.15 4.153H0V.357h16.814v3.796h-6.15v16.733H6.15z" mask="url(#d)"/>
        <path fill="#231F20" d="M22.534 22.755c-.89 2.386-2.3 3.364-5.116 3.364-.834 0-1.667-.058-2.5-.144v-3.364c.775.058 1.58.173 2.385.144 1.408-.144 1.868-1.61 1.408-2.789l-5.23-13.945h4.368L21.212 16.2h.057L24.517 6.02h4.225l-6.208 16.734zM29.375 6.021h3.852v2.013h.057c1.063-1.524 2.616-2.415 4.541-2.415 1.869 0 3.536.69 4.34 2.472.863-1.293 2.415-2.472 4.484-2.472 3.162 0 5.432 1.466 5.432 5.319v9.948h-4.08v-8.424c0-1.984-.173-3.623-2.502-3.623-2.299 0-2.73 1.898-2.73 3.767v8.28h-4.082v-8.338c0-1.725.116-3.71-2.471-3.71-.805 0-2.76.518-2.76 3.423v8.625h-4.081V6.021zM64.355 11.858c-.374-2.07-1.265-3.163-3.248-3.163-2.587 0-3.334 2.013-3.392 3.163h6.64zm-6.64 2.588c.115 2.587 1.38 3.766 3.65 3.766 1.639 0 2.961-1.006 3.22-1.926h3.593c-1.15 3.508-3.593 5.003-6.956 5.003-4.685 0-7.588-3.22-7.588-7.821 0-4.456 3.075-7.85 7.588-7.85 5.059 0 7.502 4.256 7.214 8.828h-10.72zM155.477 49.794l12.327-12.303-3.09-3.057-3.843 3.843z" mask="url(#d)"/>
        <path fill="#FC0" d="M155.477 25.194l-12.295 12.3 12.295 12.3 5.394-11.517 3.842-3.843z" mask="url(#d)"/>
    </g>
</svg>
