<svg xmlns="http://www.w3.org/2000/svg" width="128" height="128" viewBox="0 0 128 128">
    <g fill="none" fill-rule="evenodd">
        <path fill="#FECC05" d="M27.444 124H111V14.435H27.444z"/>
        <path stroke="#4F4E4D" stroke-width="3" d="M27.444 124H111V14.435H27.444z"/>
        <path fill="#FEFEFE" d="M17 113.565h83.556V4H17z"/>
        <path stroke="#4F4E4D" stroke-width="3" d="M17 113.565h83.556V4H17zM58.778 35.304H90.11M69.222 45.74h20.89"/>
        <path fill="#4F4C4D" d="M32.889 40.178V52H26.5V22h15.864c2.625 0 8.451 1.532 8.43 8.37-.013 3.858-1.466 6.1-4.6 7.452 6.34 2.07 2.91 10.31 5.508 14.178h-6.316c-1.837-2.791.809-11.733-5.635-11.822h-6.862zm.025-12.973l-.021 8.482 6.943.031s4.538.087 4.538-4.308c0-4.485-4.516-4.174-4.516-4.174l-6.944-.03z"/>
        <path d="M0 0h128v128H0z"/>
    </g>
</svg>
