<svg xmlns="http://www.w3.org/2000/svg" width="128" height="128" viewBox="0 0 128 128">
    <defs>
        <path id="a" d="M5.128 111.165c0 5.164 4.097 9.371 9.126 9.371h82.32V27.29h-82.32c-3.526 0-6.733-1.405-9.126-3.697v87.573z"/>
    </defs>
    <g fill="none" fill-rule="evenodd">
        <path fill="#FFF" d="M27.19 6.27h78.627v21.078H27.19c-5.665 0-10.256-4.718-10.256-10.539 0-5.82 4.591-10.54 10.256-10.54z"/>
        <path fill="#4F4D4C" d="M27.768 2.757h78.826c1.183 0 2.137.985 2.137 2.195V25.9h3.495c1.183 0 2.137.984 2.137 2.196v95.888c0 1.214-.954 2.198-2.137 2.198H27.768c-7.389 0-13.399-6.174-13.399-13.771V16.528c0-7.597 6.01-13.771 13.4-13.771zm76.69 23.142V7.148h-76.69c-5.028 0-9.126 4.207-9.126 9.38 0 5.164 4.098 9.371 9.126 9.371h76.69zm-85.816 86.51c0 5.172 4.098 9.379 9.126 9.379h82.322V30.29H27.768c-3.526 0-6.73-1.406-9.126-3.698v85.817z"/>
        <path fill="#FC0" d="M98.322 25.899v-3.173l-70.553-.063s-2.135 0-2.135-2.195c0-2.198 2.135-2.198 2.135-2.198l70.553-.251V15.21H27.769c-1.178 0-2.135-.983-2.135-2.196 0-1.212.957-2.195 2.135-2.195h72.69c1.186 0 2.136.983 2.136 2.195V25.9h-4.273z"/>
    </g>
</svg>
